<svg width="200" height="200" viewBox="0 0 200 200" fill="none" xmlns="http://www.w3.org/2000/svg">
<rect width="200" height="200" fill="#1C2C3E"/>
<path d="M85.9354 180.658C66.009 178.95 47.2757 170.292 33.0766 156.194L32.838 155.956C32.5994 155.757 32.4005 155.559 32.2016 155.32C18.2412 141.222 9.68991 122.636 8.01943 102.859C7.74101 99.2056 10.4854 96.0285 14.1445 95.7505C14.3434 95.7505 14.5423 95.7505 14.7411 95.7505C18.2014 95.7505 21.1049 98.4113 21.4231 101.827C21.7412 105.361 22.2981 108.896 23.1333 112.39H23.2526C26.2356 125.059 32.6391 136.655 41.7075 145.948C41.8666 146.067 42.0256 146.226 42.145 146.385L43.02 147.259C52.2076 156.154 63.5828 162.429 75.9921 165.447V165.567C79.6115 166.48 83.3104 167.076 87.0491 167.393C90.7082 167.711 93.4526 170.968 93.1344 174.621C92.8162 178.076 89.9525 180.697 86.4922 180.697C86.2934 180.658 86.1343 180.658 85.9354 180.658ZM85.8956 154.05C59.0486 150.674 37.8892 129.547 34.5085 102.74C34.1505 99.2056 36.696 96.0285 40.2756 95.6314C40.5143 95.5917 40.7529 95.5917 40.9915 95.5917C44.2529 95.5519 46.9973 97.9745 47.395 101.191C47.7928 104.249 48.4292 107.228 49.3837 110.166H49.503C53.6395 122.756 63.0658 132.882 75.3159 137.966V138.085C79.174 139.713 83.2706 140.785 87.4468 141.302C90.9866 141.778 93.4526 145.035 92.9753 148.569C92.5378 151.746 89.8332 154.129 86.6116 154.169C86.3729 154.089 86.1343 154.089 85.8956 154.05ZM85.14 127.561C73.4068 124.582 64.2589 115.409 61.3157 103.653C60.4407 100.278 62.4691 96.8228 65.8499 95.9491C66.3669 95.8299 66.884 95.7505 67.4408 95.7505H67.5601C70.5034 95.7505 73.0489 97.7362 73.7648 100.596C75.5546 107.704 81.1228 113.264 88.2025 115.091C91.6628 115.925 93.7708 119.42 92.8958 122.875C92.1798 125.734 89.5946 127.759 86.6116 127.759C86.1343 127.72 85.6172 127.68 85.14 127.561ZM145.635 95.5519C142.374 95.5917 139.629 93.1691 139.232 89.9524C138.834 86.8944 138.158 83.9159 137.203 80.9771H137.084C132.948 68.388 123.521 58.2214 111.271 53.1778V53.0587C107.413 51.4304 103.316 50.3582 99.1402 49.8419C95.6003 49.3256 93.1742 46.0294 93.6912 42.5347C94.2083 39.1193 97.2708 36.7365 100.691 37.0542C127.538 40.4298 148.698 61.5573 152.079 88.3638C152.516 91.8586 150.01 95.0357 146.51 95.4725C146.232 95.5122 145.993 95.5122 145.715 95.5122H145.635V95.5519ZM165.243 89.4758C164.925 85.9413 164.368 82.4068 163.533 78.9518H163.414C160.431 66.2832 154.027 54.6869 144.919 45.394C144.76 45.2749 144.601 45.116 144.482 44.9572L143.607 44.0835C134.419 35.1877 123.044 28.913 110.595 25.8948V25.7756C106.976 24.8622 103.277 24.2665 99.5379 23.9488C96.0776 23.6311 93.4526 20.7718 93.4526 17.277C93.4526 13.5439 96.4754 10.486 100.254 10.486H100.612C120.538 12.1937 139.271 20.8512 153.471 34.9494C153.51 35.0288 153.669 35.148 153.709 35.1877C153.948 35.3863 154.147 35.5848 154.346 35.8231C168.306 49.9213 176.897 68.5072 178.528 88.2844C178.806 92.0175 175.982 95.2739 172.244 95.5519H171.846C168.425 95.5519 165.522 92.8912 165.243 89.4758ZM119.067 95.3931C116.123 95.3931 113.578 93.4074 112.862 90.5481C111.072 83.4394 105.504 77.8795 98.4242 76.0527C95.5606 75.3776 93.5321 72.7962 93.5321 69.8574C93.5719 66.2832 96.5151 63.3842 100.135 63.4239C100.612 63.4239 101.089 63.5033 101.527 63.5827C113.26 66.5612 122.408 75.735 125.351 87.4901C126.226 90.8658 124.197 94.3208 120.856 95.1945C120.339 95.3137 119.822 95.3931 119.265 95.3931H119.067Z" fill="#EA8B00"/>
<path d="M168.107 154.328L189.187 173.112C192.647 176.21 192.965 181.492 189.863 184.947C189.823 184.986 189.783 185.026 189.744 185.066C186.681 188.521 181.391 188.839 177.931 185.781L177.891 185.741C170.851 179.466 163.851 173.271 156.772 166.957C156.453 167.671 156.255 168.188 156.016 168.704C153.55 174.78 151.124 180.896 148.658 186.972C148.499 187.369 148.34 187.727 148.141 188.124C147.703 189.117 146.629 189.673 145.595 189.474C144.72 189.236 144.004 188.64 143.567 187.846C141.618 183.914 139.788 179.903 137.919 175.892C129.089 156.989 120.26 138.085 111.47 119.142C111.032 118.189 110.953 117.156 111.191 116.124C111.708 114.495 113.14 114.058 115.01 114.694L143.845 124.265L186.999 138.641C188.153 139.038 189.227 139.475 189.346 140.825C189.425 142.136 188.63 143.327 187.397 143.764C181.272 147.06 175.187 150.396 169.101 153.732L168.107 154.328Z" fill="white"/>
</svg>
