<svg xmlns="http://www.w3.org/2000/svg" x="0px" y="0px" width="32px" height="32px" viewBox="0 0 32 32">
<path d="M14.463 30.061C10.9005 29.7629 7.55124 28.2516 5.01266 25.7906L4.96999 25.749C4.92733 25.7144 4.89177 25.6797 4.85622 25.6381C2.36031 23.1771 0.831471 19.9327 0.532815 16.4804C0.483039 15.8426 0.973688 15.288 1.62789 15.2395C1.66344 15.2395 1.699 15.2395 1.73455 15.2395C2.3532 15.2395 2.87229 15.704 2.92918 16.3002C2.98606 16.9172 3.08561 17.5341 3.23494 18.1442H3.25627C3.78959 20.3556 4.93444 22.3799 6.55572 24.0021C6.58416 24.0229 6.6126 24.0506 6.63393 24.0783L6.79037 24.2308C8.43298 25.7837 10.4667 26.879 12.6853 27.4059V27.4267C13.3324 27.5861 13.9937 27.6901 14.6621 27.7456C15.3163 27.801 15.8069 28.3695 15.7501 29.0073C15.6932 29.6104 15.1812 30.0679 14.5625 30.0679C14.527 30.061 14.4985 30.061 14.463 30.061ZM14.4559 25.4163C9.65605 24.827 5.87307 21.139 5.26865 16.4596C5.20465 15.8426 5.65975 15.288 6.29972 15.2187C6.34239 15.2118 6.38505 15.2118 6.42772 15.2118C7.01081 15.2048 7.50146 15.6277 7.57257 16.1892C7.64368 16.723 7.75745 17.243 7.92811 17.756H7.94944C8.68897 19.9535 10.3742 21.7213 12.5644 22.6087V22.6295C13.2541 22.9137 13.9866 23.1009 14.7332 23.191C15.3661 23.2742 15.8069 23.8426 15.7216 24.4596C15.6434 25.0142 15.1599 25.4302 14.5839 25.4371C14.5412 25.4232 14.4985 25.4232 14.4559 25.4163ZM14.3208 20.7924C12.2231 20.2724 10.5876 18.6711 10.0614 16.6191C9.90493 16.0298 10.2676 15.4267 10.872 15.2742C10.9644 15.2534 11.0569 15.2395 11.1564 15.2395H11.1778C11.704 15.2395 12.1591 15.5861 12.2871 16.0853C12.6071 17.3262 13.6026 18.2967 14.8683 18.6156C15.487 18.7612 15.8638 19.3712 15.7074 19.9743C15.5794 20.4735 15.1172 20.827 14.5839 20.827C14.4985 20.8201 14.4061 20.8132 14.3208 20.7924ZM25.1364 15.2048C24.5533 15.2118 24.0627 14.7889 23.9915 14.2274C23.9204 13.6936 23.7996 13.1736 23.6289 12.6607H23.6076C22.868 10.4631 21.1828 8.68838 18.9926 7.80796V7.78717C18.3029 7.50294 17.5704 7.31576 16.8238 7.22564C16.1909 7.13552 15.7572 6.56013 15.8496 5.95008C15.9421 5.35389 16.4896 4.93795 17.1011 4.99341C21.901 5.58266 25.6839 9.2707 26.2884 13.9501C26.3666 14.5601 25.9186 15.1147 25.2928 15.191C25.2431 15.1979 25.2004 15.1979 25.1506 15.1979H25.1364V15.2048ZM28.642 14.1442C28.5852 13.5272 28.4856 12.9102 28.3363 12.3071H28.315C27.7816 10.0957 26.6368 8.0714 25.0084 6.44921C24.98 6.42841 24.9515 6.40068 24.9302 6.37295L24.7737 6.22044C23.1311 4.66758 21.0974 3.57226 18.8717 3.0454V3.0246C18.2246 2.86515 17.5633 2.76117 16.8949 2.70571C16.2763 2.65025 15.8069 2.15112 15.8069 1.54107C15.8069 0.889419 16.3474 0.355621 17.0229 0.355621H17.0869C20.6494 0.653715 23.9987 2.16498 26.5372 4.62599C26.5443 4.63985 26.5728 4.66065 26.5799 4.66758C26.6226 4.70224 26.6581 4.73691 26.6937 4.7785C29.1896 7.23951 30.7255 10.4839 31.0171 13.9362C31.0669 14.5879 30.562 15.1563 29.8936 15.2048H29.8225C29.2109 15.2048 28.6918 14.7404 28.642 14.1442ZM20.3863 15.1771C19.8601 15.1771 19.405 14.8305 19.277 14.3314C18.9571 13.0905 17.9615 12.1199 16.6958 11.801C16.1838 11.6832 15.8212 11.2326 15.8212 10.7196C15.8283 10.0957 16.3545 9.58959 17.0016 9.59653C17.0869 9.59653 17.1722 9.61039 17.2505 9.62426C19.3482 10.1442 20.9837 11.7456 21.5099 13.7976C21.6663 14.3868 21.3036 14.9899 20.7063 15.1425C20.6139 15.1633 20.5214 15.1771 20.4219 15.1771H20.3863Z" fill="#EA8B00"></path><path d="M29.1544 25.4645L32.9232 28.7436C33.5418 29.2843 33.5987 30.2063 33.044 30.8094C33.0369 30.8164 33.0298 30.8233 33.0227 30.8302C32.4752 31.4333 31.5294 31.4888 30.9108 30.955L30.9037 30.9481C29.6451 29.8527 28.3935 28.7713 27.1278 27.669C27.0709 27.7938 27.0354 27.8839 26.9927 27.9741C26.5518 29.0347 26.1181 30.1023 25.6772 31.163C25.6487 31.2323 25.6203 31.2947 25.5847 31.364C25.5065 31.5373 25.3145 31.6344 25.1297 31.5997C24.9732 31.5581 24.8452 31.4541 24.767 31.3155C24.4186 30.6292 24.0915 29.929 23.7573 29.2288C22.1786 25.929 20.6 22.6292 19.0285 19.3224C18.9503 19.156 18.9361 18.9758 18.9788 18.7956C19.0712 18.5113 19.3272 18.4351 19.6614 18.546L24.8168 20.2167L32.5321 22.7262C32.7383 22.7956 32.9303 22.8718 32.9516 23.1075C32.9658 23.3363 32.8236 23.5443 32.6032 23.6205C31.5081 24.1959 30.4201 24.7782 29.3322 25.3605L29.1544 25.4645Z" fill="#1C2C3E"></path>
</svg>