<svg width="260" height="200" viewBox="0 0 260 200" fill="none" xmlns="http://www.w3.org/2000/svg">
<rect width="260" height="200" fill="#1C2C3E"/>
<path d="M118.288 167.165C101.695 165.743 86.0957 158.534 74.2719 146.794L74.0732 146.595C73.8744 146.43 73.7088 146.265 73.5432 146.066C61.9181 134.326 54.7974 118.85 53.4063 102.381C53.1745 99.3384 55.4598 96.6928 58.5068 96.4613C58.6724 96.4613 58.838 96.4613 59.0036 96.4613C61.885 96.4613 64.3028 98.677 64.5677 101.521C64.8327 104.464 65.2964 107.407 65.9919 110.318H66.0913C68.5752 120.867 73.9076 130.523 81.4589 138.262C81.5914 138.361 81.7239 138.493 81.8232 138.626L82.5519 139.353C90.2026 146.761 99.6748 151.986 110.008 154.499V154.598C113.022 155.359 116.102 155.855 119.216 156.119C122.263 156.384 124.548 159.096 124.283 162.138C124.018 165.015 121.633 167.198 118.752 167.198C118.586 167.165 118.454 167.165 118.288 167.165ZM118.255 145.008C95.8992 142.197 78.2794 124.604 75.4642 102.282C75.1661 99.3384 77.2858 96.6928 80.2666 96.3621C80.4653 96.3291 80.664 96.3291 80.8627 96.3291C83.5786 96.296 85.8638 98.3133 86.195 100.992C86.5262 103.538 87.0562 106.019 87.851 108.466H87.9504C91.3949 118.949 99.2443 127.382 109.445 131.615V131.714C112.658 133.07 116.069 133.963 119.547 134.393C122.494 134.789 124.548 137.501 124.15 140.444C123.786 143.09 121.534 145.074 118.851 145.107C118.653 145.041 118.454 145.041 118.255 145.008ZM117.626 122.95C107.855 120.47 100.238 112.831 97.787 103.042C97.0584 100.231 98.7475 97.3542 101.563 96.6267C101.993 96.5275 102.424 96.4613 102.887 96.4613H102.987C105.438 96.4613 107.557 98.1148 108.154 100.496C109.644 106.415 114.281 111.045 120.176 112.566C123.058 113.261 124.813 116.171 124.084 119.048C123.488 121.429 121.335 123.116 118.851 123.116C118.454 123.083 118.023 123.05 117.626 122.95ZM168.001 96.296C165.285 96.3291 163 94.3118 162.669 91.6331C162.338 89.0868 161.775 86.6065 160.98 84.1593H160.88C157.436 73.6762 149.587 65.2103 139.386 61.0104V60.9112C136.173 59.5553 132.762 58.6624 129.284 58.2325C126.336 57.8026 124.316 55.0578 124.747 52.1476C125.177 49.3036 127.727 47.3194 130.576 47.584C152.932 50.3949 170.551 67.9881 173.367 90.3103C173.731 93.2205 171.644 95.8661 168.73 96.2299C168.498 96.2629 168.299 96.2629 168.067 96.2629H168.001V96.296ZM184.329 91.2363C184.064 88.2931 183.601 85.3499 182.905 82.4728H182.806C180.322 71.9235 174.99 62.267 167.405 54.5287C167.273 54.4295 167.14 54.2972 167.041 54.1649L166.312 53.4374C158.661 46.0297 149.189 40.8047 138.823 38.2913V38.1921C135.809 37.4315 132.729 36.9355 129.615 36.6709C126.734 36.4064 124.548 34.0253 124.548 31.1152C124.548 28.0066 127.065 25.4602 130.211 25.4602H130.509C147.103 26.8822 162.702 34.0915 174.526 45.8313C174.559 45.8974 174.691 45.9966 174.725 46.0297C174.923 46.1951 175.089 46.3604 175.254 46.5588C186.88 58.2987 194.033 73.7754 195.391 90.2442C195.623 93.3528 193.272 96.0645 190.158 96.296H189.827C186.979 96.296 184.561 94.0803 184.329 91.2363ZM145.877 96.1637C143.426 96.1637 141.307 94.5102 140.71 92.1292C139.22 86.2097 134.583 81.5799 128.688 80.0587C126.303 79.4965 124.614 77.3469 124.614 74.8997C124.647 71.9235 127.098 69.5094 130.112 69.5424C130.509 69.5424 130.907 69.6086 131.271 69.6747C141.042 72.1549 148.659 79.7941 151.11 89.5828C151.839 92.3938 150.15 95.2708 147.368 95.9984C146.937 96.0976 146.506 96.1637 146.043 96.1637H145.877Z" fill="#EA8B00"/>
<path d="M186.714 145.24L204.267 160.882C207.149 163.461 207.414 167.859 204.83 170.736C204.797 170.77 204.764 170.803 204.731 170.836C202.181 173.713 197.776 173.977 194.894 171.431L194.861 171.398C188.999 166.173 183.17 161.014 177.275 155.756C177.01 156.351 176.844 156.781 176.645 157.211C174.592 162.271 172.572 167.363 170.518 172.423C170.386 172.754 170.253 173.051 170.088 173.382C169.723 174.209 168.829 174.672 167.968 174.506C167.239 174.308 166.643 173.812 166.279 173.151C164.656 169.877 163.132 166.537 161.576 163.197C154.223 147.455 146.871 131.714 139.551 115.94C139.187 115.146 139.12 114.286 139.319 113.426C139.75 112.07 140.942 111.707 142.499 112.236L166.511 120.206L202.446 132.177C203.406 132.508 204.3 132.871 204.4 133.996C204.466 135.087 203.804 136.079 202.777 136.443C197.676 139.188 192.609 141.966 187.542 144.744L186.714 145.24Z" fill="white"/>
</svg>
